# xmcd
#
# Track frame offsets:
#	150
#	22367
#	37765
#	59960
#	76465
#	93967
#	111782
#	140760
#	167042
#	190135
#
# Disc length: 2775 seconds
#
# Revision: 4
# Processed by: cddbd v1.5.2PL0 Copyright (c) Steve Scherf et al.
# Submitted via: EZCDAudioConverter 1.3.4.1
#
DISCID=8b0ad50a
DTITLE=Howie B - Folk
DYEAR=2001
DGENRE=
TTITLE0=Making Love On Your Side
TTITLE1=All This Means To Me
TTITLE2=Musical Mayday
TTITLE3=Touch
TTITLE4=Duet
TTITLE5=Watermelon Sugar
TTITLE6=Hey Jack
TTITLE7=My Wee Cod Piece
TTITLE8=Tap Dancer
TTITLE9=Telephone
EXTD=
EXTT0=
EXTT1=
EXTT2=
EXTT3=
EXTT4=
EXTT5=
EXTT6=
EXTT7=
EXTT8=
EXTT9=
PLAYORDER=
